# xmcd
#
# Track frame offsets: 
#        150
#        12109
#        22263
#        37194
#        49675
#        61494
#        74442
#        90303
#        103373
#        121726
#        134226
#
# Disc length: 1950 seconds
#
# Revision: 0
# Processed by: cddbd v1.5.2PL0 Copyright (c) Steve Scherf et al.
# Submitted via: ExactAudioCopyFreeDBPlugin 1.0
#
DISCID=a0079c0b
DTITLE=Rex Donovan - Country Instrumentals
DYEAR=1900
DGENRE=Instrumental
TTITLE0=Love Sick Blues
TTITLE1=Wabash Cannonball
TTITLE2=Love in the First Degree
TTITLE3=Amarillo by Mornin'
TTITLE4=Don't It Make My Brown Eyes Blue
TTITLE5=Behind Closed Doors
TTITLE6=Always on My Mind
TTITLE7=18 Wheels and a Dozen Roses
TTITLE8=Georgia on My Mind
TTITLE9=Love's Been a Little Hard on Me
TTITLE10=Take This Job and Shove It
EXTD=
EXTT0=
EXTT1=
EXTT2=
EXTT3=
EXTT4=
EXTT5=
EXTT6=
EXTT7=
EXTT8=
EXTT9=
EXTT10=
PLAYORDER=
